<svg id="Ebene_1" data-name="Ebene 1" xmlns="http://www.w3.org/2000/svg" viewBox="0 0 345.99 345.99"><defs><style>.cls-1{fill:none;stroke:#1d1d1b;stroke-miterlimit:10;stroke-width:2px;}</style></defs><path class="cls-1" d="M172.5,344.49c-5.17,0-10.16-2.06-15-4.06a50.92,50.92,0,0,0-11.06-3.63,52,52,0,0,0-12,0c-5.13.4-10.43.82-15.18-.72s-9-5.08-12.9-8.46A51.18,51.18,0,0,0,97,320.73c-3.41-1.75-7.42-2.71-11.3-3.65-5-1.21-10.21-2.46-14.28-5.43s-6.89-7.54-9.59-12a51.14,51.14,0,0,0-6.91-9.58,51.59,51.59,0,0,0-9.59-6.92c-4.42-2.7-9-5.49-12-9.59s-4.22-9.26-5.43-14.28A51.16,51.16,0,0,0,24.26,248a51.18,51.18,0,0,0-6.93-9.46c-3.38-3.95-6.88-8-8.45-12.9s-1.13-10-.72-15.18a51.93,51.93,0,0,0,0-11.95c-.57-3.69-2.13-7.44-3.63-11.06-2-4.82-4.06-9.81-4.06-15s2.06-10.16,4.06-15c1.5-3.62,3.06-7.37,3.63-11.05a52,52,0,0,0,0-12c-.41-5.13-.83-10.43.72-15.18s5.07-9,8.45-12.9A50.73,50.73,0,0,0,24.26,97a51,51,0,0,0,3.65-11.3c1.21-5,2.47-10.21,5.43-14.28s7.54-6.89,12-9.59a51.13,51.13,0,0,0,9.59-6.92A51.14,51.14,0,0,0,61.8,45.3c2.7-4.42,5.5-9,9.59-12s9.27-4.22,14.29-5.43A51.08,51.08,0,0,0,97,24.26a50.73,50.73,0,0,0,9.46-6.93c3.95-3.38,8-6.88,12.9-8.45s10-1.13,15.18-.72a52,52,0,0,0,12,0,50.92,50.92,0,0,0,11.06-3.63c4.81-2,9.8-4.06,15-4.06s10.15,2.06,15,4.06a50.57,50.57,0,0,0,11.06,3.63,52.5,52.5,0,0,0,11.95,0c5.13-.41,10.43-.83,15.18.72s9,5.07,12.9,8.45A50.73,50.73,0,0,0,248,24.26a51.16,51.16,0,0,0,11.3,3.65c5,1.21,10.21,2.47,14.28,5.43s6.89,7.54,9.59,12a51.59,51.59,0,0,0,6.92,9.59,51.47,51.47,0,0,0,9.58,6.91c4.42,2.7,9,5.5,12,9.59s4.22,9.27,5.43,14.29c.94,3.87,1.9,7.88,3.65,11.29a51.18,51.18,0,0,0,6.93,9.46c3.38,3.95,6.88,8,8.46,12.9s1.12,10,.72,15.18a52,52,0,0,0,0,12,50.67,50.67,0,0,0,3.63,11.05c2,4.82,4.06,9.81,4.06,15s-2.06,10.15-4.06,15a50.57,50.57,0,0,0-3.63,11.06,51.94,51.94,0,0,0,0,11.95c.4,5.13.82,10.43-.72,15.18s-5.08,9-8.46,12.9a51.18,51.18,0,0,0-6.93,9.46,51.69,51.69,0,0,0-3.65,11.3c-1.21,5-2.46,10.21-5.43,14.28s-7.54,6.89-12,9.59c-3.38,2.08-6.89,4.22-9.58,6.92s-4.84,6.2-6.92,9.58c-2.7,4.42-5.49,9-9.59,12s-9.26,4.22-14.28,5.43a51.69,51.69,0,0,0-11.3,3.65,51.18,51.18,0,0,0-9.46,6.93c-3.95,3.38-8,6.88-12.9,8.46s-10,1.12-15.18.72a51.94,51.94,0,0,0-11.95,0,50.57,50.57,0,0,0-11.06,3.63C182.65,342.43,177.67,344.49,172.5,344.49Z" transform="translate(0.5 0.5)"/></svg>