<svg id="Ebene_1" data-name="Ebene 1" xmlns="http://www.w3.org/2000/svg" viewBox="0 0 345.99 345.99"><defs><style>.cls-1{fill:none;stroke:#1d1d1b;stroke-miterlimit:10;stroke-width:2px;}</style></defs><path class="cls-1" d="M183.94,351.77c-10.28,0-20.05-3.49-29.49-6.86-4.46-1.59-9.07-3.24-13.58-4.44-4.7-1.26-9.63-2.17-14.4-3.06-9.83-1.82-20-3.71-28.55-8.66s-15.37-12.89-21.84-20.5c-3.13-3.67-6.36-7.48-9.76-10.87s-7.19-6.63-10.87-9.76C47.84,281.15,40,274.46,35,265.78s-6.84-18.72-8.66-28.54c-.89-4.77-1.81-9.71-3.06-14.41-1.21-4.5-2.85-9.11-4.44-13.57-3.37-9.44-6.86-19.21-6.86-29.49s3.48-20.05,6.86-29.49c1.59-4.46,3.23-9.07,4.44-13.57,1.25-4.7,2.17-9.64,3.06-14.41,1.82-9.82,3.71-20,8.66-28.54S47.84,78.39,55.45,71.92c3.68-3.13,7.48-6.37,10.87-9.76S73,55,76.08,51.29c6.47-7.61,13.17-15.48,21.84-20.5s18.72-6.84,28.54-8.66c4.78-.89,9.71-1.8,14.41-3.06,4.51-1.2,9.12-2.85,13.58-4.44,9.44-3.37,19.21-6.86,29.49-6.86s20,3.49,29.49,6.86c4.45,1.59,9.06,3.24,13.57,4.44,4.7,1.26,9.63,2.17,14.41,3.06,9.82,1.82,20,3.71,28.54,8.66s15.37,12.89,21.84,20.5c3.13,3.68,6.36,7.48,9.76,10.87s7.19,6.63,10.87,9.75c7.61,6.48,15.47,13.17,20.49,21.85s6.84,18.72,8.66,28.54c.89,4.77,1.81,9.71,3.06,14.41,1.21,4.5,2.85,9.11,4.44,13.57,3.38,9.44,6.86,19.21,6.86,29.49s-3.48,20-6.86,29.49c-1.59,4.46-3.23,9.07-4.44,13.57-1.25,4.7-2.17,9.64-3.06,14.41-1.82,9.82-3.71,20-8.66,28.54S320,281.15,312.42,287.63c-3.68,3.12-7.48,6.36-10.87,9.75s-6.63,7.2-9.76,10.87c-6.47,7.61-13.17,15.48-21.84,20.5s-18.72,6.84-28.54,8.66c-4.78.89-9.71,1.8-14.41,3.06-4.51,1.2-9.12,2.85-13.57,4.44C204,348.28,194.22,351.77,183.94,351.77Z" transform="translate(-10.94 -6.77)"/></svg>