<?xml version="1.0" encoding="utf-8"?>
<!-- Generator: Adobe Illustrator 25.2.0, SVG Export Plug-In . SVG Version: 6.00 Build 0)  -->
<svg version="1.1" id="Ebene_1" xmlns="http://www.w3.org/2000/svg" xmlns:xlink="http://www.w3.org/1999/xlink" x="0px" y="0px"
	 viewBox="0 0 454 338.3" style="enable-background:new 0 0 454 338.3;" xml:space="preserve">
<style type="text/css">
	.st0{fill:none;stroke:#2B2E34;stroke-width:2.518;}
	.st1{font-family:'AcuminPro-Light';}
	.st2{font-size:54.7645px;}
</style>
<g id="Gruppe_189" transform="translate(1.259 1.259)">
	<path id="Pfad_567" class="st0" d="M225.7,336.9c-5.8,0-11.5-1.9-17-3.7c-4.3-1.6-8.9-2.8-13.4-3.4c-4.8-0.3-9.6-0.1-14.3,0.7
		c-5.7,0.7-11.5,1.4-17,0.2c-5.7-1.2-11-4.3-16-7.3c-3.9-2.5-8-4.5-12.3-6.1c-4.6-1.3-9.2-2.1-14-2.5c-5.7-0.6-11.7-1.2-16.8-3.6
		c-5.4-2.5-9.8-6.9-14.1-11.1c-3.1-3.2-6.5-6.2-10.1-8.7c-4-2.4-8.2-4.3-12.5-5.8c-5.5-2.1-11.2-4.3-15.5-8.1
		c-4.7-4.1-7.7-9.7-10.6-15.2c-1.9-3.8-4.1-7.5-6.7-10.9c-2.8-3.3-6-6.3-9.3-9.1c-4.7-4.1-9.5-8.3-12.3-13.6
		c-2.9-5.7-3.5-12.3-4-18.7c-0.2-4.1-0.8-8.1-1.7-12.1c-1.1-3.9-2.5-7.6-4.1-11.3c-2.6-6-5.2-12.1-5.2-18.6s2.6-12.7,5.2-18.6
		c1.7-3.6,3.1-7.4,4.1-11.2c0.9-4,1.4-8,1.7-12.1c0.5-6.4,1.1-13,4-18.7c2.8-5.3,7.6-9.5,12.3-13.6c3.4-2.8,6.5-5.8,9.3-9.1
		c2.6-3.4,4.8-7.1,6.7-10.9C45,68.2,48,62.6,52.7,58.5c4.3-3.8,10-6,15.5-8.1c4.4-1.5,8.6-3.5,12.5-5.8c3.7-2.6,7.1-5.5,10.1-8.7
		c4.3-4.2,8.7-8.5,14.1-11.1c5.1-2.4,11-3,16.8-3.6c4.7-0.3,9.4-1.2,14-2.5c4.3-1.6,8.4-3.7,12.3-6.1c5-3,10.3-6.1,16-7.3
		c5.4-1.1,11.3-0.5,17,0.2c4.7,0.7,9.5,0.9,14.3,0.7c4.6-0.7,9.1-1.8,13.5-3.5c5.5-1.8,11.2-3.7,17-3.7s11.5,1.9,17,3.7
		c4.3,1.6,8.9,2.8,13.4,3.5c4.8,0.3,9.6,0.1,14.3-0.7c5.7-0.7,11.5-1.4,17-0.2c5.7,1.2,11,4.3,16,7.3c3.9,2.5,8,4.5,12.3,6.1
		c4.6,1.3,9.2,2.1,14,2.5c5.7,0.6,11.7,1.2,16.8,3.6c5.4,2.5,9.8,6.9,14.1,11.1c3.1,3.2,6.5,6.2,10.1,8.7c4,2.4,8.2,4.3,12.5,5.8
		c5.5,2.1,11.2,4.3,15.5,8.1c4.7,4.1,7.7,9.7,10.6,15.2c1.9,3.8,4.1,7.5,6.7,10.9c2.8,3.3,6,6.3,9.3,9.1c4.7,4.1,9.5,8.3,12.3,13.6
		c2.9,5.7,3.5,12.3,4,18.7c0.2,4.1,0.8,8.1,1.7,12.1c1.1,3.9,2.5,7.6,4.1,11.2c2.6,6,5.2,12.1,5.2,18.6c0,6.5-2.6,12.7-5.2,18.6
		c-1.7,3.6-3.1,7.4-4.1,11.2c-0.9,4-1.4,8-1.7,12.1c-0.5,6.4-1.1,13-4,18.7c-2.8,5.3-7.6,9.5-12.3,13.6c-3.4,2.8-6.5,5.8-9.3,9.1
		c-2.6,3.4-4.8,7.1-6.7,10.9c-2.9,5.5-5.9,11.1-10.6,15.2c-4.3,3.8-10,6-15.5,8.1c-4.4,1.5-8.6,3.5-12.5,5.8
		c-3.7,2.6-7.1,5.5-10.1,8.7c-4.3,4.2-8.7,8.5-14.1,11.1c-5.1,2.4-11,3-16.8,3.6c-4.7,0.3-9.4,1.2-14,2.5c-4.3,1.6-8.4,3.7-12.3,6.1
		c-5,3-10.3,6.1-16,7.3c-5.4,1.1-11.3,0.5-17-0.2c-4.7-0.7-9.5-1-14.3-0.7c-4.6,0.7-9.1,1.8-13.4,3.5
		C237.2,335,231.5,336.9,225.7,336.9z"/>
</g>
<text transform="matrix(1 0 0 1 103.8357 185.2336)" class="st1 st2">BEILAGE:</text>
</svg>
