<svg id="Ebene_1" data-name="Ebene 1" xmlns="http://www.w3.org/2000/svg" viewBox="0 0 604.3 122.97"><path d="M48.83,83.78A73,73,0,0,0,49.73,96H43.56c-.52-1.55-.9-4.37-1.16-9.9-2.18,4.76-7.84,11.44-21.07,11.44C6.42,97.53,0,87.89,0,78.25,0,64.12,10.92,57.69,30.2,57.69H42.4V51.14c0-6.42-1.92-15-16.57-15-13,0-14.91,6.81-16.32,12.08H3.08c.77-7.07,5.14-18,22.88-18,14.64,0,22.87,6.16,22.87,20.3Zm-6.3-20.56H29.94C15.68,63.22,6.81,67,6.81,78c0,8.09,5.78,13.62,14.78,13.62,18.37,0,20.94-12.21,20.94-26.09Z"/><path d="M112.59,77.23c0,6.29.13,16.31.13,18.76h-6.17a102.32,102.32,0,0,1-.39-11.18c-2.69,7.58-9.25,12.72-20.68,12.72-9.25,0-21.08-3.6-21.08-23.26V31.74h6.3v41c0,9.38,3,18.5,15.68,18.5,14.39,0,19.78-8.09,19.78-26.47v-33h6.43Z"/><path d="M136.36,96V37.78H125.31v-6h11.05V22.62c0-10.8,3.08-22.62,17.47-22.62a24.18,24.18,0,0,1,6.3.9V7.07a31.54,31.54,0,0,0-6.94-.77c-7.58,0-10.41,5.39-10.41,16.57v8.87h14.29v6H142.78V96Z"/><path d="M216,91.62c0,20.56-9.13,31.35-27.76,31.35-16.7,0-23.64-9.38-25.18-19.15h6.55c2.31,8.87,9.64,13.11,18.89,13.11,16.7,0,21.33-10.79,21.33-27.11V83.14C206.39,91.49,200.09,96,188.4,96c-15,0-26.6-12.21-26.6-32.13,0-21.59,12.34-33.66,27.5-33.66,13.1,0,18.76,6.16,20.56,11.3.13-3.72.25-8.22.38-9.76h6c0,2.31-.25,12.46-.25,18.63Zm-47.42-28C168.61,78.9,176.71,90,189,90c16.06,0,21-10.67,21-27.37,0-17-5.14-26.34-20.56-26.34C174.65,36.24,168.61,49,168.61,63.6Z"/><path d="M235.51,64.63c.13,16.58,8.48,26.86,20.82,26.86,12.07,0,16.19-6.81,18.5-12.08h6.55c-2.7,8.48-9.51,18.12-25.31,18.12C236.54,97.53,229,80.69,229,64.38,229,46,238.08,30.2,256.84,30.2c19.79,0,26.08,17.09,26.08,29.16,0,1.8,0,3.6-.12,5.27ZM276.24,59c-.13-12.72-7.06-22.74-19.66-22.74-13.23,0-19.27,9.25-20.68,22.74Z"/><path d="M290,31.74h11.95v-20h6.43v20h15.29v6H308.37V79.54c0,7.19,1.54,11.31,7.71,11.31a24.06,24.06,0,0,0,6.68-.78v5.66a22.58,22.58,0,0,1-8,1.15c-8.22,0-12.85-4.11-12.85-14.39V37.78H290Z"/><path d="M338.76,31.74h6.43V96h-6.43Z"/><path d="M365.62,78.25c2.18,8.36,8.09,13.37,18.24,13.37,11.44,0,16.07-5.27,16.07-12.47s-3.09-10.92-17.48-14.39c-16.58-4-20.69-9-20.69-17.47,0-8.87,6.68-17.09,21.2-17.09s21.46,8.86,22.49,18H399c-1.16-5.4-5.4-12.08-16.32-12.08-11.18,0-14.39,5.52-14.39,10.66,0,5.91,3.08,8.87,15.8,11.95,18.12,4.37,22.62,10.28,22.62,19.92,0,11.69-9.51,18.89-23,18.89-14.65,0-22.88-7.71-24.68-19.28Z"/><path d="M470,77.1C466.87,88.4,459.42,97.53,445,97.53c-16.07,0-27.5-12-27.5-33.41,0-17.61,9.38-33.92,28.27-33.92,16.31,0,23,11.56,24.15,20.55H463.4c-1.93-7.45-6.81-14.51-17.73-14.51-13.62,0-21.33,11.56-21.33,27.62,0,15.29,7.19,27.63,20.69,27.63,9.37,0,15-4.76,18.37-14.39Z"/><path d="M491.28,1.29V42.53c3.6-6.68,9.9-12.33,21.2-12.33,9.13,0,21.72,4.62,21.72,24.92V96h-6.42V56.41c0-12.72-5.79-19.92-16.45-19.92-12.72,0-20.05,7.84-20.05,23.65V96h-6.42V1.29Z"/><path d="M544.25,31.74h12v-20h6.42v20h15.3v6h-15.3V79.54c0,7.19,1.55,11.31,7.71,11.31a24.09,24.09,0,0,0,6.69-.78v5.66a22.58,22.58,0,0,1-8,1.15c-8.22,0-12.85-4.11-12.85-14.39V37.78h-12Z"/><circle cx="341.97" cy="5.07" r="5.07"/><circle cx="599.23" cy="35.74" r="5.07"/><circle cx="599.23" cy="80.91" r="5.07"/></svg>