<?xml version="1.0" encoding="utf-8"?>
<!-- Generator: Adobe Illustrator 25.2.0, SVG Export Plug-In . SVG Version: 6.00 Build 0)  -->
<svg version="1.1" id="Ebene_1" xmlns="http://www.w3.org/2000/svg" xmlns:xlink="http://www.w3.org/1999/xlink" x="0px" y="0px"
	 viewBox="0 0 453.95 338.32" style="enable-background:new 0 0 453.95 338.32;" xml:space="preserve">
<style type="text/css">
	.st0{font-family:'FakirDisplayPro-RegularCondensed';}
	.st1{font-size:36.6704px;}
	.st2{fill:none;stroke:#000000;stroke-miterlimit:10;}
</style>
<text transform="matrix(1 0 0 1 122.6048 180.6076)"><tspan x="0" y="0" class="st0 st1">Sal</tspan><tspan x="39.13" y="0" class="st0 st1">z </tspan></text>
<text transform="matrix(1 0 0 1 265.1791 180.6076)"><tspan x="0" y="0" class="st0 st1">P</tspan><tspan x="20.57" y="0" class="st0 st1">feff</tspan><tspan x="56.8" y="0" class="st0 st1">e</tspan><tspan x="70.22" y="0" class="st0 st1">r</tspan></text>
<g>
	<path class="st2" d="M148.55,237.08c-2.33,0-4.62-0.76-6.84-1.5c-1.77-0.59-3.61-1.2-5.4-1.39c-1.88-0.19-3.85,0.04-5.75,0.26
		c-2.28,0.27-4.64,0.54-6.82,0.08c-2.31-0.48-4.41-1.73-6.44-2.93c-1.59-0.94-3.24-1.91-4.93-2.47c-1.78-0.58-3.73-0.79-5.61-0.99
		c-2.31-0.25-4.69-0.5-6.73-1.46c-2.18-1.02-3.96-2.76-5.67-4.45c-1.35-1.32-2.62-2.57-4.08-3.5c-1.54-0.98-3.31-1.68-5.03-2.34
		c-2.21-0.86-4.5-1.75-6.23-3.27c-1.88-1.65-3.09-3.91-4.26-6.1c-0.85-1.59-1.65-3.09-2.69-4.38c-1.08-1.33-2.43-2.51-3.75-3.65
		c-1.88-1.63-3.82-3.32-4.93-5.47c-1.18-2.28-1.4-4.94-1.62-7.51c-0.14-1.63-0.28-3.31-0.67-4.86c-0.38-1.51-1.03-3.04-1.67-4.52
		c-1.03-2.4-2.09-4.88-2.09-7.49c0-2.61,1.06-5.09,2.09-7.49c0.63-1.48,1.29-3.01,1.67-4.52c0.39-1.54,0.53-3.23,0.67-4.86
		c0.22-2.57,0.44-5.23,1.62-7.51c1.11-2.15,3.05-3.83,4.93-5.46c1.31-1.14,2.67-2.32,3.75-3.66c1.04-1.29,1.84-2.79,2.69-4.38
		c1.17-2.19,2.38-4.45,4.26-6.1c1.73-1.52,4.02-2.41,6.23-3.27c1.72-0.67,3.5-1.36,5.03-2.34c1.46-0.93,2.73-2.18,4.08-3.5
		c1.71-1.68,3.49-3.42,5.67-4.45c2.04-0.96,4.43-1.21,6.73-1.46c1.88-0.2,3.83-0.41,5.61-0.99c1.69-0.56,3.34-1.53,4.93-2.47
		c2.03-1.2,4.13-2.44,6.44-2.93c2.19-0.46,4.54-0.18,6.82,0.09c1.9,0.22,3.87,0.45,5.75,0.26c1.79-0.18,3.63-0.8,5.4-1.39
		c2.21-0.74,4.5-1.5,6.84-1.5c2.33,0,4.62,0.76,6.84,1.5c1.77,0.59,3.61,1.21,5.4,1.39c1.88,0.19,3.85-0.04,5.75-0.26
		c2.28-0.27,4.64-0.54,6.82-0.09c2.31,0.48,4.41,1.72,6.44,2.93c1.59,0.94,3.24,1.91,4.93,2.47c1.78,0.59,3.73,0.79,5.61,0.99
		c2.31,0.25,4.69,0.5,6.73,1.46c2.18,1.02,3.96,2.76,5.67,4.45c1.35,1.32,2.62,2.57,4.08,3.5c1.54,0.98,3.31,1.68,5.03,2.35
		c2.21,0.86,4.5,1.75,6.23,3.27c1.88,1.65,3.09,3.91,4.26,6.1c0.85,1.59,1.65,3.09,2.69,4.38c1.08,1.34,2.43,2.52,3.75,3.66
		c1.88,1.63,3.82,3.32,4.93,5.46c1.18,2.28,1.4,4.94,1.62,7.51c0.14,1.63,0.28,3.31,0.67,4.86c0.38,1.51,1.03,3.04,1.67,4.52
		c1.03,2.4,2.09,4.88,2.09,7.49c0,2.61-1.06,5.09-2.09,7.49c-0.63,1.48-1.29,3-1.67,4.52c-0.39,1.54-0.53,3.23-0.67,4.86
		c-0.22,2.57-0.44,5.23-1.62,7.51c-1.11,2.15-3.05,3.83-4.93,5.46c-1.31,1.14-2.67,2.32-3.75,3.66c-1.04,1.29-1.84,2.79-2.69,4.38
		c-1.17,2.19-2.38,4.45-4.26,6.1c-1.73,1.52-4.02,2.41-6.23,3.27c-1.72,0.67-3.5,1.36-5.03,2.34c-1.46,0.93-2.73,2.18-4.08,3.5
		c-1.71,1.68-3.49,3.42-5.67,4.45c-2.04,0.96-4.42,1.21-6.73,1.46c-1.88,0.2-3.83,0.41-5.61,0.99c-1.69,0.56-3.33,1.53-4.93,2.47
		c-2.03,1.2-4.13,2.44-6.44,2.93c-2.19,0.46-4.54,0.18-6.82-0.08c-1.9-0.22-3.87-0.45-5.75-0.26c-1.79,0.18-3.63,0.79-5.4,1.39
		C153.17,236.32,150.88,237.08,148.55,237.08z"/>
	<path class="st2" d="M305.4,237.08c-2.33,0-4.62-0.76-6.84-1.5c-1.77-0.59-3.61-1.2-5.4-1.39c-1.88-0.19-3.85,0.04-5.75,0.26
		c-2.28,0.27-4.64,0.54-6.82,0.08c-2.31-0.48-4.41-1.73-6.44-2.93c-1.59-0.94-3.24-1.91-4.93-2.47c-1.78-0.58-3.73-0.79-5.61-0.99
		c-2.31-0.25-4.69-0.5-6.73-1.46c-2.18-1.02-3.96-2.76-5.67-4.45c-1.35-1.32-2.62-2.57-4.08-3.5c-1.54-0.98-3.31-1.68-5.03-2.34
		c-2.21-0.86-4.5-1.75-6.23-3.27c-1.88-1.65-3.09-3.91-4.26-6.1c-0.85-1.59-1.65-3.09-2.69-4.38c-1.08-1.33-2.43-2.51-3.75-3.65
		c-1.88-1.63-3.82-3.32-4.93-5.47c-1.18-2.28-1.4-4.94-1.62-7.51c-0.14-1.63-0.28-3.31-0.67-4.86c-0.38-1.51-1.03-3.04-1.67-4.52
		c-1.03-2.4-2.09-4.88-2.09-7.49c0-2.61,1.06-5.09,2.09-7.49c0.63-1.48,1.29-3.01,1.67-4.52c0.39-1.54,0.53-3.23,0.67-4.86
		c0.22-2.57,0.44-5.23,1.62-7.51c1.11-2.15,3.05-3.83,4.93-5.46c1.31-1.14,2.67-2.32,3.75-3.66c1.04-1.29,1.84-2.79,2.69-4.38
		c1.17-2.19,2.38-4.45,4.26-6.1c1.73-1.52,4.02-2.41,6.23-3.27c1.72-0.67,3.5-1.36,5.03-2.34c1.46-0.93,2.73-2.18,4.08-3.5
		c1.71-1.68,3.49-3.42,5.67-4.45c2.04-0.96,4.43-1.21,6.73-1.46c1.88-0.2,3.83-0.41,5.61-0.99c1.69-0.56,3.34-1.53,4.93-2.47
		c2.03-1.2,4.13-2.44,6.44-2.93c2.19-0.46,4.54-0.18,6.82,0.09c1.9,0.22,3.87,0.45,5.75,0.26c1.79-0.18,3.63-0.8,5.4-1.39
		c2.21-0.74,4.5-1.5,6.84-1.5s4.62,0.76,6.84,1.5c1.77,0.59,3.61,1.21,5.4,1.39c1.88,0.19,3.85-0.04,5.75-0.26
		c2.28-0.27,4.64-0.54,6.82-0.09c2.31,0.48,4.41,1.72,6.44,2.93c1.59,0.94,3.24,1.91,4.93,2.47c1.78,0.59,3.73,0.79,5.61,0.99
		c2.31,0.25,4.69,0.5,6.73,1.46c2.18,1.02,3.96,2.76,5.67,4.45c1.35,1.32,2.62,2.57,4.08,3.5c1.54,0.98,3.31,1.68,5.03,2.35
		c2.21,0.86,4.5,1.75,6.23,3.27c1.88,1.65,3.09,3.91,4.26,6.1c0.85,1.59,1.65,3.09,2.69,4.38c1.08,1.34,2.43,2.52,3.75,3.66
		c1.88,1.63,3.82,3.32,4.93,5.46c1.18,2.28,1.4,4.94,1.62,7.51c0.14,1.63,0.28,3.31,0.67,4.86c0.38,1.51,1.03,3.04,1.67,4.52
		c1.03,2.4,2.09,4.88,2.09,7.49c0,2.61-1.06,5.09-2.09,7.49c-0.63,1.48-1.29,3-1.67,4.52c-0.39,1.54-0.53,3.23-0.67,4.86
		c-0.22,2.57-0.44,5.23-1.62,7.51c-1.11,2.15-3.05,3.83-4.93,5.46c-1.31,1.14-2.67,2.32-3.75,3.66c-1.04,1.29-1.84,2.79-2.69,4.38
		c-1.17,2.19-2.38,4.45-4.26,6.1c-1.73,1.52-4.02,2.41-6.23,3.27c-1.72,0.67-3.5,1.36-5.03,2.34c-1.46,0.93-2.73,2.18-4.08,3.5
		c-1.71,1.68-3.49,3.42-5.67,4.45c-2.04,0.96-4.42,1.21-6.73,1.46c-1.88,0.2-3.83,0.41-5.61,0.99c-1.69,0.56-3.33,1.53-4.93,2.47
		c-2.03,1.2-4.13,2.44-6.44,2.93c-2.19,0.46-4.54,0.18-6.82-0.08c-1.9-0.22-3.87-0.45-5.75-0.26c-1.79,0.18-3.63,0.79-5.4,1.39
		C310.02,236.32,307.74,237.08,305.4,237.08z"/>
</g>
</svg>
